<svg id="Lager_1" data-name="Lager 1" xmlns="http://www.w3.org/2000/svg" viewBox="0 0 664.09 135.25"><defs><style>.cls-1,.cls-2{fill:#fff;}.cls-2{fill-rule:evenodd;}</style></defs><title>Prevas_CMYK_negativ</title><path class="cls-1" d="M306.88,232.68S84.6,227.62,88,297.43c1.74,35.71,65.76,38,65.76,38s-31.53-5-36.09-31.76C106.55,238.43,306.88,232.68,306.88,232.68Z" transform="translate(-87.96 -232.6)"/><path class="cls-2" d="M162.18,365.39h39.31v-30h30.79c19.66,0,34.79-8.15,34.79-30.91,0-24.32-15.78-32.47-38.28-32.47H162.18v93.39Zm39.31-73.73h11.9c11.26,0,15.14,4,15.14,11.77,0,9.19-5.05,12.29-19,12.29h-8V291.66Z" transform="translate(-87.96 -232.6)"/><path class="cls-1" d="M272.81,365.39h38V342.5c0-12,5-19.41,21.46-19.41h7.12V298c-15.65.65-24.58,3.23-29.75,19h-.26l-.9-16.56H272c.77,5.69.77,14.23.77,24.19v40.74Z" transform="translate(-87.96 -232.6)"/><path class="cls-2" d="M443.81,338.1v-3.5c0-28.71-25.09-36.6-49.92-36.6C365.17,298,344,308.09,344,333.31c0,24.58,20.56,34.54,51,34.54,33.5,0,46.82-10.35,48-21.22H405.65c-1,4.14-4,7.51-11.38,7.51-8.66,0-13.06-5.05-13.06-16Zm-62.6-12.42c0-8.53,4.53-14,12.68-14,8.66,0,12.67,5.56,12.67,14Z" transform="translate(-87.96 -232.6)"/><polygon class="cls-1" points="430.14 132.79 460.41 67.86 430.74 67.86 411.6 113.98 393.45 67.86 354.84 67.86 385.24 132.79 430.14 132.79"/><path class="cls-2" d="M585.21,319.21c.65-4,3.37-7.5,12.17-7.5,8.4,0,11.12,4.92,11.12,10.35v3.62H598c-27,0-51.22,3.75-51.22,23.15,0,8.67,5.57,14.1,12.16,16.56,5.44,2.07,13.58,2.46,21.73,2.46,13.32,0,23.41-2.72,30.65-11.77l.65,9.31h33.89a48.71,48.71,0,0,1-.91-8.67V325.81C645,305.12,629.72,298,595.7,298c-10,0-21,1-29.63,4.27s-14.87,8.54-15.39,16.94ZM608.5,338.1v2.07c0,7.76-6,14-15.39,14-6.6,0-9.83-3.62-9.83-7.38,0-5.43,5.69-8.66,20.44-8.66Z" transform="translate(-87.96 -232.6)"/><path class="cls-1" d="M748.82,319.21c0-17.2-18.24-21.21-47.21-21.21-29.75,0-46.83,6.6-46.83,23.15,0,7.64,5.7,13.84,16.94,15.65l25.49,4c15.13,2.33,17.59,3.24,17.59,7.64,0,3.87-4.53,5.69-12.93,5.69-4.66,0-7.9-.26-10.1-1.55s-3.23-3.24-3.88-6H653c.78,14,10.22,21.22,51.35,21.22,33.37,0,47.73-6.86,47.73-21.22,0-12.93-10.22-17.07-30.39-20l-13.07-1.94c-16.82-2.46-18.11-3.5-18.11-7.25,0-3.49,4.66-5.69,10.86-5.69a18.5,18.5,0,0,1,8.41,1.55,7.43,7.43,0,0,1,4.14,5.95Z" transform="translate(-87.96 -232.6)"/></svg>